/* XPM */
static char *_8bfff2473344824a72791aeadb8605aOvLGbFoQap1Mo13v[] = {
/* columns rows colors chars-per-pixel */
"18 18 10 1 ",
"  c None",
". c #200529",
"X c #5F2B2C",
"o c #584A4C",
"O c #6E7468",
"+ c #9E4C3D",
"@ c #EA8056",
"# c #DC8C7E",
"$ c #EAB06B",
"% c #B66387",
/* pixels */
"     .......      ",
"    .@@@@@@@.     ",
"   .@$$$$$$$@.    ",
"  .@$$$$$$$$$@.   ",
"  .$$$$$$$$$$$.   ",
"...$$$$$$$$$$$... ",
".%%@$$$$$$$$$@%%. ",
" .%@$$$$$$$$$@%.  ",
"  .@@$$$$$$$@@.   ",
"  .@@@@$$$@@@@.   ",
"   .@@@@@@@@@.    ",
"  .XX@@@@@@@XX.   ",
"  .%X.X@@@X.X%.   ",
"  .#%.XXXXX.%#.   ",
"   ..ooooooo..    ",
"    .oOO.OOo.     ",
"    .X+. .+X.     ",
"     ..   ..      "
};
