/* XPM */
static char *_fb316d0e4204842e9ced5ce3b6ba188zTNNUAZWFSKTSYNU[] = {
/* columns rows colors chars-per-pixel */
"32 32 7 1 ",
"  c #5F472A",
". c #2F2314",
"X c #553F25",
"o c #4A3720",
"O c #251B0F",
"+ c #3D2D1A",
"@ c #1D150C",
/* pixels */
"@@@@@@@@@@@@@@@@@OOOOOOOOOOOOOOO",
"@@@@@@@@@@@@OOOOOOOOOOOOOOOOOOOO",
"@@@@@@@@@@OOOOOO.O..............",
"@@@@@@@@@OOOOO......O..O..O..O..",
"@@@@@@@@OOO@O...................",
"@@@@@@@OOOOOO.......+.+.+.+.+.+.",
"@@@@@@OOOOO..O.+...+++++++++++++",
"@@@@@@OO.O....+....+++++++++++++",
"@@@@O@@O.O..+...++.+++++++++++++",
"@@@OOOOOO..++..++++ooooooooooooo",
"@@OOOOO...+++++o++oooooooooooooo",
"@@O@@OO...++++o++++++ooooooooooo",
"@OOOO....+++ooooooooo+XXXXXXXXXX",
"@OOOO...+++oooooXXXXXooXXXXXXXXX",
"@OOO...+++ooooXXXXXXXXoXXXXXXXXX",
"@OO....+++oooXXXXX X X X X X X X",
"OOO...++++oooXXXXXX             ",
"OOO...++++ooXXXXX   X X X X X X ",
"OO....+++oooXXXX  X             ",
"OO....+++oooXXXXX               ",
"OO...++++oooXXX    XX           ",
"OO....+++oooXXXXXX XoX          ",
"OO....+++oooXXXooXXX XX         ",
"OO....+++oooXXXoXooX XX oX      ",
"OO...++++ooXXXXoXXoX XoooX      ",
"OO....+++oooXXXXoXXX XoXoXX     ",
"OO....+++oooXXXXXXX  XXXoXX     ",
"OO....+++oooXXX X      X        ",
"OO...++++ooXXXXX                ",
"OO....+++oooXX X                ",
"OO....+++oooXXXX X              ",
"OO....+++oooXXXX                "
};
