/* XPM */
static char *result[] = {
/* columns rows colors chars-per-pixel */
"32 32 12 1 ",
"  c #DC5600",
". c #0E0E00",
"X c #090900",
"o c #C74D00",
"O c #D75300",
"+ c #CF5000",
"@ c #010200",
"# c #E55900",
"$ c #391900",
"% c #4F2000",
"& c #833400",
"* c #A84200",
/* pixels */
"................................",
"................................",
"................................",
".XXXXXXXXXXXXX...XXXXXXXXXXXXX..",
"XXXXXXXXXXXXXXX.XXXXXXXXXXXXXXXX",
"X@@@@@XX@@@@@@@XX@@@@@XX@@@@@@@X",
".$$$.@@@@.$%%%$..$$$.@@@@.$%%%$.",
"o # +*&&*+ ### oo # +*&&*+ ### o",
"     ####      ## OO ####       ",
"                 oooo+          ",
"                 +ooo+     +o+  ",
"                       oO Oooo  ",
"                       +O  OO   ",
"                   ++           ",
"                   ++       o+  ",
"                            OO  ",
"                  O             ",
"                 +oo      OO    ",
"                 O++     +ooo   ",
"                     O   ooooO  ",
"                    +oO   ++O   ",
"                             O  ",
"                           Ooo+ ",
"                       OoO Ooo+ ",
"                   +o+  O    O  ",
"                  +ooo+         ",
"                  +ooo+         ",
"                   OOO          ",
"                        O+++    ",
"                        oooo+   ",
"                        O++OO   ",
"                                "
};
